<?xml version="1.0" encoding="UTF-8" standalone="no"?>
<!-- Created with Inkscape (http://www.inkscape.org/) -->

<svg
   xmlns:dc="http://purl.org/dc/elements/1.1/"
   xmlns:cc="http://creativecommons.org/ns#"
   xmlns:rdf="http://www.w3.org/1999/02/22-rdf-syntax-ns#"
   xmlns:svg="http://www.w3.org/2000/svg"
   xmlns="http://www.w3.org/2000/svg"
   version="1.1"
   width="765"
   height="781.83752"
   id="svg2">
  <defs
     id="defs4">
    <clipPath
       id="clipPath3135">
      <path
         d="m 0,0 612,0 0,625.47 -612,0 L 0,0 z"
         id="path3137" />
    </clipPath>
    <clipPath
       id="clipPath3039">
      <path
         d="m 0,0 612,0 0,625.47 -612,0 L 0,0 z"
         id="path3041" />
    </clipPath>
    <clipPath
       id="clipPath3017">
      <path
         d="m 0,0 612,0 0,625.47 -612,0 L 0,0 z"
         id="path3019" />
    </clipPath>
    <clipPath
       id="clipPath3001">
      <path
         d="m 0,0 612,0 0,625.47 -612,0 L 0,0 z"
         id="path3003" />
    </clipPath>
  </defs>
  <metadata
     id="metadata7">
    <rdf:RDF>
      <cc:Work
         rdf:about="">
        <dc:format>image/svg+xml</dc:format>
        <dc:type
           rdf:resource="http://purl.org/dc/dcmitype/StillImage" />
        <dc:title></dc:title>
      </cc:Work>
    </rdf:RDF>
  </metadata>
  <g
     transform="translate(-783.21429,-272.872)"
     id="layer1">
    <g
       transform="matrix(1.25,0,0,-1.25,783.21429,1054.7095)"
       id="g2993">
      <path
         d="m 1.5,1.5 610.5,0 0,622.47 -610.5,0 0,-622.47 z"
         id="path2995"
         style="fill:#d9eecc;fill-opacity:1;fill-rule:nonzero;stroke:none" />
      <g
         id="g2997">
        <g
           clip-path="url(#clipPath3001)"
           id="g2999">
          <path
             d="m 1.5,1.5 610.5,0 0,622.47 -610.5,0 0,-622.47 z"
             id="path3005"
             style="fill:none;stroke:#231f20;stroke-width:3;stroke-linecap:butt;stroke-linejoin:miter;stroke-miterlimit:4;stroke-opacity:1;stroke-dasharray:none" />
          <g
             transform="translate(284.1732,1.8475)"
             id="g3007">
            <path
               d="m 0,0 c 0,0 -0.102,6.969 2.78,14.122 2.881,7.154 8.267,12.539 11.102,18.35 2.835,5.811 3.968,6.378 4.535,10.867 0.567,4.488 -3.423,-0.303 0.273,9.533 3.696,9.837 1.995,8.183 5.113,14.089 3.118,5.905 3.543,6.378 10.394,14.645 6.85,8.268 13.937,16.677 20.079,23.386 6.141,6.709 4.063,8.504 7.228,8.268 3.165,-0.236 6.756,-0.473 8.504,3.779 1.748,4.252 1.275,8.268 8.362,12.52 7.087,4.252 3.732,4.252 10.866,4.724 7.134,0.473 12.803,10.205 16.205,11.717 3.402,1.512 3.118,4.535 7.654,3.969 4.535,-0.567 7.984,0.803 13.322,4.251 5.339,3.449 6.992,6.048 13.607,11.008 6.614,4.961 13.7,6.851 19.606,9.213 5.905,2.362 10.157,3.685 14.409,6.614 4.252,2.929 4.158,7.323 10.158,8.74 6,1.418 10.394,2.835 16.299,5.67 5.906,2.834 8.268,2.362 12.756,7.086 4.488,4.725 12.898,4.488 15.779,4.252 2.882,-0.236 4.536,-0.236 9.26,2.126 4.725,2.362 7.607,5.197 11.717,8.268 4.11,3.071 5.102,6.378 7.653,6.378 2.552,0 7.587,-1.93 12.416,0.5 4.829,2.429 5.773,3.563 10.025,6.964 4.252,3.402 13.465,10.536 17.008,12.756 3.544,2.221 1.181,2.457 6.614,4.819 5.433,2.362 8.032,2.599 10.394,4.252 2.362,1.654 14.646,9.449 14.646,9.449"
               id="path3009"
               style="fill:none;stroke:#2a3e92;stroke-width:4;stroke-linecap:butt;stroke-linejoin:miter;stroke-miterlimit:4;stroke-opacity:1;stroke-dasharray:none" />
          </g>
        </g>
      </g>
      <path
         d="m 305.89,457.47 302.11,0 0,164 -302.11,0 0,-164 z"
         id="path3011"
         style="fill:#ffffff;fill-opacity:1;fill-rule:nonzero;stroke:none" />
      <g
         id="g3013">
        <g
           clip-path="url(#clipPath3017)"
           id="g3015">
          <path
             d="m 305.89,457.47 302.11,0 0,164 -302.11,0 0,-164 z"
             id="path3021"
             style="fill:none;stroke:#231f20;stroke-width:8;stroke-linecap:butt;stroke-linejoin:miter;stroke-miterlimit:4;stroke-opacity:1;stroke-dasharray:none" />
          <g
             transform="translate(81.2598,627.3594)"
             id="g3023">
            <path
               d="m 0,0 26.929,-109.134 38.079,-152.126 69.165,-286.299 19.37,-79.087"
               id="path3025"
               style="fill:none;stroke:#231f20;stroke-width:6;stroke-linecap:butt;stroke-linejoin:miter;stroke-miterlimit:4;stroke-opacity:1;stroke-dasharray:none" />
          </g>
          <g
             transform="translate(106.2992,483.7373)"
             id="g3027">
            <path
               d="m 0,0 362.362,-283.937 147.591,76.307"
               id="path3029"
               style="fill:none;stroke:#231f20;stroke-width:3;stroke-linecap:butt;stroke-linejoin:miter;stroke-miterlimit:4;stroke-opacity:1;stroke-dasharray:none" />
          </g>
        </g>
      </g>
      <g
         transform="translate(228.189,78.383)"
         id="g3031">
        <path
           d="M 0,0 238.811,121.642"
           id="path3033"
           style="fill:none;stroke:#231f20;stroke-width:3;stroke-linecap:butt;stroke-linejoin:miter;stroke-miterlimit:4;stroke-opacity:1;stroke-dasharray:none" />
      </g>
      <g
         id="g3035">
        <g
           clip-path="url(#clipPath3039)"
           id="g3037">
          <g
             transform="translate(70.2992,609.4066)"
             id="g3043">
            <path
               d="m 0,0 c 0,0 58.677,-109.134 69.543,-135.591 10.866,-26.456 36.378,-85.039 36.378,-85.039 0,0 -5.008,-10.11 33.544,-15.118 38.551,-5.008 62.929,-8.504 62.929,-8.504 l 117.779,-92.935 15.471,-10.353"
               id="path3045"
               style="fill:none;stroke:#f680c5;stroke-width:3;stroke-linecap:butt;stroke-linejoin:miter;stroke-miterlimit:4;stroke-opacity:1;stroke-dasharray:none" />
          </g>
          <g
             transform="translate(412.9134,257.2018)"
             id="g3047">
            <path
               d="M 0,0 -8.731,11.924 -14.353,3.524 0,0 z"
               id="path3049"
               style="fill:#f680c5;fill-opacity:1;fill-rule:nonzero;stroke:none" />
          </g>
          <g
             transform="translate(124.7244,504.1467)"
             id="g3051">
            <path
               d="m 0,0 75.591,-325.417 c 0,0 7.777,-17.41 -34.316,-39.526 -30.787,-16.175 -39.99,-16.732 -39.99,-16.732"
               id="path3053"
               style="fill:none;stroke:#d22027;stroke-width:3;stroke-linecap:butt;stroke-linejoin:miter;stroke-miterlimit:4;stroke-opacity:1;stroke-dasharray:none" />
          </g>
          <g
             transform="translate(117.6378,121.9656)"
             id="g3055">
            <path
               d="M 0,0 14.168,-4.206 13.557,5.883 0,0 z"
               id="path3057"
               style="fill:#d22027;fill-opacity:1;fill-rule:nonzero;stroke:none" />
          </g>
          <g
             transform="translate(219.0709,64.8712)"
             id="g3059">
            <path
               d="m 0,0 c 7.958,0 14.409,6.451 14.409,14.409 0,7.959 -6.451,14.41 -14.409,14.41 -7.958,0 -14.409,-6.451 -14.409,-14.41 C -14.409,6.451 -7.958,0 0,0"
               id="path3061"
               style="fill:#918f90;fill-opacity:1;fill-rule:nonzero;stroke:none" />
          </g>
          <g
             transform="translate(312.6142,268.3042)"
             id="g3063">
            <path
               d="m 0,0 c 7.958,0 14.409,6.451 14.409,14.409 0,7.959 -6.451,14.41 -14.409,14.41 -7.958,0 -14.409,-6.451 -14.409,-14.41 C -14.409,6.451 -7.958,0 0,0"
               id="path3065"
               style="fill:#918f90;fill-opacity:1;fill-rule:nonzero;stroke:none" />
          </g>
          <g
             transform="translate(545.6221,229.4696)"
             id="g3067">
            <path
               d="m 0,0 c 7.958,0 14.409,6.451 14.409,14.409 0,7.959 -6.451,14.41 -14.409,14.41 -7.958,0 -14.409,-6.451 -14.409,-14.41 C -14.409,6.451 -7.958,0 0,0"
               id="path3069"
               style="fill:#918f90;fill-opacity:1;fill-rule:nonzero;stroke:none" />
          </g>
          <g
             transform="translate(373.4646,350.0365)"
             id="g3071">
            <path
               d="m 0,0 c 7.958,0 14.409,6.451 14.409,14.409 0,7.959 -6.451,14.41 -14.409,14.41 -7.958,0 -14.409,-6.451 -14.409,-14.41 C -14.409,6.451 -7.958,0 0,0"
               id="path3073"
               style="fill:#918f90;fill-opacity:1;fill-rule:nonzero;stroke:none" />
          </g>
          <g
             transform="translate(207.1653,433.3751)"
             id="g3075">
            <path
               d="m 0,0 c 7.958,0 14.409,6.451 14.409,14.409 0,7.959 -6.451,14.41 -14.409,14.41 -7.958,0 -14.409,-6.451 -14.409,-14.41 C -14.409,6.451 -7.958,0 0,0"
               id="path3077"
               style="fill:#918f90;fill-opacity:1;fill-rule:nonzero;stroke:none" />
          </g>
          <g
             transform="translate(178.3465,314.32)"
             id="g3079">
            <path
               d="m 0,0 c 7.958,0 14.409,6.451 14.409,14.409 0,7.959 -6.451,14.41 -14.409,14.41 -7.958,0 -14.409,-6.451 -14.409,-14.41 C -14.409,6.451 -7.958,0 0,0"
               id="path3081"
               style="fill:#918f90;fill-opacity:1;fill-rule:nonzero;stroke:none" />
          </g>
          <g
             transform="translate(115.0394,486.0995)"
             id="g3083">
            <path
               d="m 0,0 c 7.958,0 14.409,6.451 14.409,14.409 0,7.959 -6.451,14.41 -14.409,14.41 -7.958,0 -14.409,-6.451 -14.409,-14.41 C -14.409,6.451 -7.958,0 0,0"
               id="path3085"
               style="fill:#918f90;fill-opacity:1;fill-rule:nonzero;stroke:none" />
          </g>
        </g>
      </g>
      <g
         transform="translate(409.7276,251.6261)"
         id="g3087">
        <path
           d="M 0,0 13.029,-13.029 26.057,0 13.029,13.029 0,0 z"
           id="path3089"
           style="fill:#f680c5;fill-opacity:1;fill-rule:nonzero;stroke:none" />
      </g>
      <g
         transform="translate(335.4882,501.8347)"
         id="g3091">
        <path
           d="M 0,0 13.029,-13.029 26.057,0 13.029,13.029 0,0 z"
           id="path3093"
           style="fill:#f680c5;fill-opacity:1;fill-rule:nonzero;stroke:none" />
      </g>
      <g
         transform="translate(324.8504,575.8633)"
         id="g3095">
        <path
           d="M 0,0 42.263,0"
           id="path3097"
           style="fill:none;stroke:#d22027;stroke-width:3;stroke-linecap:butt;stroke-linejoin:miter;stroke-miterlimit:4;stroke-opacity:1;stroke-dasharray:none" />
      </g>
      <g
         transform="translate(375.4995,575.8633)"
         id="g3099">
        <path
           d="m 0,0 -13.888,5.054 0,-10.108 L 0,0 z"
           id="path3101"
           style="fill:#d22027;fill-opacity:1;fill-rule:nonzero;stroke:none" />
      </g>
      <g
         transform="translate(324.8504,536.8633)"
         id="g3103">
        <path
           d="M 0,0 42.263,0"
           id="path3105"
           style="fill:none;stroke:#f680c5;stroke-width:3;stroke-linecap:butt;stroke-linejoin:miter;stroke-miterlimit:4;stroke-opacity:1;stroke-dasharray:none" />
      </g>
      <g
         transform="translate(375.4995,536.8633)"
         id="g3107">
        <path
           d="m 0,0 -13.888,5.054 0,-10.108 L 0,0 z"
           id="path3109"
           style="fill:#f680c5;fill-opacity:1;fill-rule:nonzero;stroke:none" />
      </g>
      <g
         transform="translate(108.4252,130.8239)"
         id="g3111">
        <path
           d="m 0,0 -9.213,-11.354 18.426,0 L 0,0 z"
           id="path3113"
           style="fill:#231f20;fill-opacity:1;fill-rule:nonzero;stroke:none" />
      </g>
      <g
         transform="translate(148.8195,189.9971)"
         id="g3115">
        <path
           d="m 0,0 -9.213,-11.354 18.426,0 L 0,0 z"
           id="path3117"
           style="fill:#231f20;fill-opacity:1;fill-rule:nonzero;stroke:none" />
      </g>
      <g
         transform="translate(381.2599,233.2255)"
         id="g3119">
        <path
           d="m 0,0 -9.213,-11.354 18.426,0 L 0,0 z"
           id="path3121"
           style="fill:#231f20;fill-opacity:1;fill-rule:nonzero;stroke:none" />
      </g>
      <g
         transform="translate(417.0472,291.3357)"
         id="g3123">
        <path
           d="m 0,0 -9.213,-11.354 18.426,0 L 0,0 z"
           id="path3125"
           style="fill:#231f20;fill-opacity:1;fill-rule:nonzero;stroke:none" />
      </g>
      <g
         transform="translate(331.2992,407.2019)"
         id="g3127">
        <path
           d="m 0,0 -9.213,-11.354 18.426,0 L 0,0 z"
           id="path3129"
           style="fill:#231f20;fill-opacity:1;fill-rule:nonzero;stroke:none" />
      </g>
      <g
         id="g3131">
        <g
           clip-path="url(#clipPath3135)"
           id="g3133">
          <g
             transform="translate(210.4724,214.7294)"
             id="g3139">
            <path
               d="m 0,0 c 0,0 -0.709,1.134 4.252,1.134 4.961,0 11.764,7.086 15.449,7.086 3.685,0 16.086,0.355 16.086,0.355 0,0 6.733,-7.441 8.859,-10.984 2.126,-3.544 8.22,-3.615 9.071,-8.363 0.85,-4.748 3.685,-7.582 3.685,-10.063 0,-2.48 0.354,-10.984 0.354,-13.464 0,-2.481 5.386,-5.67 1.63,-7.795 -3.756,-2.126 -7.37,-5.67 -11.055,-4.607 -3.685,1.063 0.638,7.866 -5.953,2.197 -6.591,-5.669 -5.386,-4.677 -11.055,-7.512 -5.669,-2.834 -19.701,-0.992 -22.677,1.276 -2.977,2.268 -1.843,11.834 -5.953,15.023 -4.11,3.189 -5.528,5.67 -6.236,8.859 -0.709,3.189 4.96,4.606 -2.126,8.149 -7.087,3.544 -2.835,2.552 -0.355,7.654 C -3.543,-5.953 0,0 0,0"
               id="path3141"
               style="fill:#42b23c;fill-opacity:1;fill-rule:nonzero;stroke:none" />
          </g>
        </g>
      </g>
      <g
         transform="translate(260.7874,24.2323)"
         id="g3143">
        <path
           d="M 0,0 0,21.198"
           id="path3145"
           style="fill:none;stroke:#231f20;stroke-width:7;stroke-linecap:butt;stroke-linejoin:miter;stroke-miterlimit:4;stroke-opacity:1;stroke-dasharray:none" />
      </g>
      <g
         transform="translate(260.7874,9.9971)"
         id="g3147">
        <path
           d="m 0,0 8.928,24.536 -17.856,0 L 0,0 z"
           id="path3149"
           style="fill:#231f20;fill-opacity:1;fill-rule:nonzero;stroke:none" />
      </g>
      <g
         transform="translate(120.6134,608.9667)"
         id="g3151">
        <path
           d="M 0,0 0,-21.198"
           id="path3153"
           style="fill:none;stroke:#231f20;stroke-width:7;stroke-linecap:butt;stroke-linejoin:miter;stroke-miterlimit:4;stroke-opacity:1;stroke-dasharray:none" />
      </g>
      <g
         transform="translate(120.6134,623.2018)"
         id="g3155">
        <path
           d="m 0,0 -8.928,-24.536 17.856,0 L 0,0 z"
           id="path3157"
           style="fill:#231f20;fill-opacity:1;fill-rule:nonzero;stroke:none" />
      </g>
      <text
         transform="matrix(1,0,0,-1,103.748,575.5922)"
         id="text3159">
        <tspan
           x="0 10.108 17.892 25.676001"
           y="0"
           id="tspan3161"
           style="font-size:14px;font-variant:normal;font-weight:normal;font-stretch:normal;writing-mode:lr-tb;fill:#231f20;fill-opacity:1;fill-rule:nonzero;stroke:none;font-family:Arial;-inkscape-font-specification:ArialMT">Caen</tspan>
      </text>
      <text
         transform="matrix(1,0,0,-1,394.7717,577.4819)"
         id="text3163">
        <tspan
           x="0 7.7839999 10.892 18.676001 26.459999 34.243999 44.352001 52.136002 59.919998 67.704002 71.596001 75.487999 80.150002 87.933998 94.933998 102.718 106.61 117.502"
           y="0"
           id="tspan3165"
           style="font-size:14px;font-variant:normal;font-weight:normal;font-stretch:normal;writing-mode:lr-tb;fill:#231f20;fill-opacity:1;fill-rule:nonzero;stroke:none;font-family:Arial;-inkscape-font-specification:ArialMT">planowana trasa GB</tspan>
      </text>
      <text
         transform="matrix(1,0,0,-1,394.7717,560.6819)"
         id="text3167">
        <tspan
           x="0 12.964 20.747999 25.41 29.302 37.085999 40.194 47.978001 55.762001 59.653999 67.438004"
           y="0"
           id="tspan3169"
           style="font-size:14px;font-variant:normal;font-weight:normal;font-stretch:normal;writing-mode:lr-tb;fill:#231f20;fill-opacity:1;fill-rule:nonzero;stroke:none;font-family:Arial;-inkscape-font-specification:ArialMT">Worthington</tspan>
      </text>
      <text
         transform="matrix(1,0,0,-1,394.7717,532.7246)"
         id="text3171">
        <tspan
           x="0 4.6620002 11.662 19.445999 26.445999 33.445999 40.445999 50.554001 53.661999 60.661999 64.554001 72.337997 76.230003 80.122002 84.783997 92.568001 99.568001"
           y="0"
           id="tspan3173"
           style="font-size:14px;font-variant:normal;font-weight:normal;font-stretch:normal;writing-mode:lr-tb;fill:#231f20;fill-opacity:1;fill-rule:nonzero;stroke:none;font-family:Arial;-inkscape-font-specification:ArialMT">rzeczywista trasa</tspan>
      </text>
      <text
         transform="matrix(1,0,0,-1,394.7717,495.6945)"
         id="text3175">
        <tspan
           x="0 7 14.784 17.892 25.676001 29.568001 37.352001 41.243999 49.028 56.812 63.812 70.811996 77.811996 80.919998 88.704002 92.596001 100.38 108.164 112.826 120.61 128.394 136.17799"
           y="0"
           id="tspan3177"
           style="font-size:14px;font-variant:normal;font-weight:normal;font-stretch:normal;writing-mode:lr-tb;fill:#231f20;fill-opacity:1;fill-rule:nonzero;stroke:none;font-family:Arial;-inkscape-font-specification:ArialMT">zajęta pozycja obronna</tspan>
      </text>
      <text
         transform="matrix(1,0,0,-1,238.5276,47.5449)"
         id="text3179">
        <tspan
           x="0 8.5539999 16.337999 19.445999 27.23 30.337999 37.338001"
           y="0"
           id="tspan3181"
           style="font-size:14px;font-variant:normal;font-weight:normal;font-stretch:normal;writing-mode:lr-tb;fill:#231f20;fill-opacity:1;fill-rule:nonzero;stroke:none;font-family:Arial;-inkscape-font-specification:ArialMT">Falaise</tspan>
      </text>
      <text
         transform="matrix(1,0,0,-1,14.4094,494.3213)"
         id="text3183">
        <tspan
           x="0 12.274 16.048 25.5 30.226 39.678001 49.130001 58.582001 68.033997"
           y="0"
           id="tspan3185"
           style="font-size:17px;font-variant:normal;font-weight:normal;font-stretch:normal;writing-mode:lr-tb;fill:#231f20;fill-opacity:1;fill-rule:nonzero;stroke:none;font-family:Arial;-inkscape-font-specification:ArialMT">Cintheaux</tspan>
      </text>
      <text
         transform="matrix(1,0,0,-1,171.2645,469.6516)"
         id="text3187">
        <tspan
           x="0 12.274 21.726 30.226 34 42.5 51.952 61.403999 67.065002"
           y="0"
           id="tspan3189"
           style="font-size:17px;font-variant:normal;font-weight:normal;font-stretch:normal;writing-mode:lr-tb;fill:#231f20;fill-opacity:1;fill-rule:nonzero;stroke:none;font-family:Arial;-inkscape-font-specification:ArialMT">Cavicourt</tspan>
      </text>
      <text
         transform="matrix(1,0,0,-1,397.0866,358.2583)"
         id="text3191">
        <tspan
           x="0 11.339 20.791 24.565001 34.016998 43.469002 52.921001 56.695 60.469002 69.920998"
           y="0"
           id="tspan3193"
           style="font-size:17px;font-variant:normal;font-weight:normal;font-stretch:normal;writing-mode:lr-tb;fill:#231f20;fill-opacity:1;fill-rule:nonzero;stroke:none;font-family:Arial;-inkscape-font-specification:ArialMT">Soignolles</tspan>
      </text>
      <text
         transform="matrix(1,0,0,-1,347.5827,397.683)"
         id="text3195">
        <tspan
           x="0 8.3400002"
           y="0"
           id="tspan3197"
           style="font-size:15px;font-variant:normal;font-weight:normal;font-stretch:normal;writing-mode:lr-tb;fill:#231f20;fill-opacity:1;fill-rule:nonzero;stroke:none;font-family:Arial;-inkscape-font-specification:ArialMT">84</tspan>
      </text>
      <text
         transform="matrix(1,0,0,-1,433.3386,280.644)"
         id="text3199">
        <tspan
           x="0 7.23 14.46"
           y="0"
           id="tspan3201"
           style="font-size:15px;font-variant:normal;font-weight:normal;font-stretch:normal;writing-mode:lr-tb;fill:#231f20;fill-opacity:1;fill-rule:nonzero;stroke:none;font-family:Arial;-inkscape-font-specification:ArialMT">111</tspan>
      </text>
      <text
         transform="matrix(1,0,0,-1,368.6378,204.9433)"
         id="text3203">
        <tspan
           x="0 8.3400002 16.68"
           y="0"
           id="tspan3205"
           style="font-size:15px;font-variant:normal;font-weight:normal;font-stretch:normal;writing-mode:lr-tb;fill:#231f20;fill-opacity:1;fill-rule:nonzero;stroke:none;font-family:Arial;-inkscape-font-specification:ArialMT">140</tspan>
      </text>
      <text
         transform="matrix(1,0,0,-1,95.811,100.3445)"
         id="text3207">
        <tspan
           x="0 8.3400002 16.68"
           y="0"
           id="tspan3209"
           style="font-size:15px;font-variant:normal;font-weight:normal;font-stretch:normal;writing-mode:lr-tb;fill:#231f20;fill-opacity:1;fill-rule:nonzero;stroke:none;font-family:Arial;-inkscape-font-specification:ArialMT">195</tspan>
      </text>
      <text
         transform="matrix(1,0,0,-1,109.1339,176.313)"
         id="text3211">
        <tspan
           x="0 8.3400002 16.68"
           y="0"
           id="tspan3213"
           style="font-size:15px;font-variant:normal;font-weight:normal;font-stretch:normal;writing-mode:lr-tb;fill:#231f20;fill-opacity:1;fill-rule:nonzero;stroke:none;font-family:Arial;-inkscape-font-specification:ArialMT">151</tspan>
      </text>
      <text
         transform="matrix(1,0,0,-1,513.9712,263.2776)"
         id="text3215">
        <tspan
           x="0 12.274 21.726 31.177999 39.678001 45.339001 54.791"
           y="0"
           id="tspan3217"
           style="font-size:17px;font-variant:normal;font-weight:normal;font-stretch:normal;writing-mode:lr-tb;fill:#231f20;fill-opacity:1;fill-rule:nonzero;stroke:none;font-family:Arial;-inkscape-font-specification:ArialMT">Rouvres</tspan>
      </text>
      <text
         transform="matrix(1,0,0,-1,139.4016,73.093)"
         id="text3219">
        <tspan
           x="0 11.339 20.791 25.517 29.291 38.743 48.195"
           y="0"
           id="tspan3221"
           style="font-size:17px;font-variant:normal;font-weight:normal;font-stretch:normal;writing-mode:lr-tb;fill:#231f20;fill-opacity:1;fill-rule:nonzero;stroke:none;font-family:Arial;-inkscape-font-specification:ArialMT">Potigny</tspan>
      </text>
      <text
         transform="matrix(1,0,0,-1,212.7638,142.3766)"
         id="text3223">
        <tspan
           x="0 9.4519997 18.903999 27.403999 32.130001 45.355999 54.807999 64.260002 72.760002 82.211998 91.664001"
           y="0"
           id="tspan3225"
           style="font-size:17px;font-style:italic;font-variant:normal;font-weight:normal;font-stretch:normal;writing-mode:lr-tb;fill:#231f20;fill-opacity:1;fill-rule:nonzero;stroke:none;font-family:Arial;-inkscape-font-specification:Arial-ItalicMT">Las Quesnay</tspan>
      </text>
      <text
         transform="matrix(0.76604583,-0.64278596,-0.64278596,-0.76604583,221.1556,375.61)"
         id="text3227">
        <tspan
           x="0 10.830012 19.170021 27.510031 40.005043 43.335049 51.675056 55.845062 66.675072 75.015083 83.355095 90.855103"
           y="0"
           id="tspan3229"
           style="font-size:15.00001621px;font-style:italic;font-variant:normal;font-weight:normal;font-stretch:normal;writing-mode:lr-tb;fill:#231f20;fill-opacity:1;fill-rule:nonzero;stroke:none;font-family:Arial;-inkscape-font-specification:Arial-ItalicMT">Chemin Hauss</tspan>
      </text>
      <text
         transform="matrix(0.76604583,-0.64278596,-0.64278596,-0.76604583,296.5126,312.378)"
         id="text3231">
        <tspan
           x="0"
           y="0"
           id="tspan3233"
           style="font-size:15.00001621px;font-variant:normal;font-weight:normal;font-stretch:normal;writing-mode:lr-tb;fill:#231f20;fill-opacity:1;fill-rule:nonzero;stroke:none;font-family:Arial;-inkscape-font-specification:ArialMT">é</tspan>
      </text>
      <text
         transform="matrix(0.2249525,-0.97436973,-0.97436973,-0.2249525,142.4142,293.7035)"
         id="text3235">
        <tspan
           x="0 10.83004 19.170071 27.510101 31.680117 40.020149 44.190163 55.020203 63.360233 67.530251 70.86026 79.200294 87.540321 95.880356 99.210365 107.5504 111.72041 120.06045 128.40048"
           y="0"
           id="tspan3237"
           style="font-size:15.00005531px;font-style:italic;font-variant:normal;font-weight:normal;font-stretch:normal;writing-mode:lr-tb;fill:#231f20;fill-opacity:1;fill-rule:nonzero;stroke:none;font-family:Arial;-inkscape-font-specification:Arial-ItalicMT">Route Nationale 158</tspan>
      </text>
      <text
         transform="matrix(1,0,0,-1,47.436,333.1353)"
         id="text3239">
        <tspan
           x="0 11.339 17 26.452 31.177999 35.903999 45.355999 53.855999 57.630001 61.403999 65.178001 74.629997 80.291 84.065002 93.516998"
           y="0"
           id="tspan3241"
           style="font-size:17px;font-variant:normal;font-weight:normal;font-stretch:normal;writing-mode:lr-tb;fill:#231f20;fill-opacity:1;fill-rule:nonzero;stroke:none;font-family:Arial;-inkscape-font-specification:ArialMT">Bretteville-le-</tspan>
      </text>
      <text
         transform="matrix(1,0,0,-1,74.3512,312.7354)"
         id="text3243">
        <tspan
           x="0 12.274 21.726 31.177999 40.630001"
           y="0"
           id="tspan3245"
           style="font-size:17px;font-variant:normal;font-weight:normal;font-stretch:normal;writing-mode:lr-tb;fill:#231f20;fill-opacity:1;fill-rule:nonzero;stroke:none;font-family:Arial;-inkscape-font-specification:ArialMT">Rabet</tspan>
      </text>
      <text
         transform="matrix(1,0,0,-1,271.5211,254.5108)"
         id="text3247">
        <tspan
           x="0 11.339 19.839001 24.565001 30.226 39.678001 49.130001 57.630001 63.291 67.065002 76.516998"
           y="0"
           id="tspan3249"
           style="font-size:17px;font-variant:normal;font-weight:normal;font-stretch:normal;writing-mode:lr-tb;fill:#231f20;fill-opacity:1;fill-rule:nonzero;stroke:none;font-family:Arial;-inkscape-font-specification:ArialMT">Estrees-la-</tspan>
      </text>
      <text
         transform="matrix(1,0,0,-1,271.0314,234.1108)"
         id="text3251">
        <tspan
           x="0 12.274 21.726 35.887001 45.339001 54.791 64.242996 73.695"
           y="0"
           id="tspan3253"
           style="font-size:17px;font-variant:normal;font-weight:normal;font-stretch:normal;writing-mode:lr-tb;fill:#231f20;fill-opacity:1;fill-rule:nonzero;stroke:none;font-family:Arial;-inkscape-font-specification:ArialMT">Campagne</tspan>
      </text>
      <text
         transform="matrix(0.89767328,0.44066163,0.44066163,-0.89767328,436.3787,153.3878)"
         id="text3255">
        <tspan
           x="0"
           y="0"
           id="tspan3257"
           style="font-size:17.99997902px;font-style:italic;font-variant:normal;font-weight:normal;font-stretch:normal;writing-mode:lr-tb;fill:#2a3e92;fill-opacity:1;fill-rule:nonzero;stroke:none;font-family:Arial;-inkscape-font-specification:Arial-ItalicMT">L</tspan>
      </text>
      <text
         transform="matrix(0.89766889,0.44067059,0.44067059,-0.89766889,445.3651,157.7992)"
         id="text3259">
        <tspan
           x="0"
           y="0"
           id="tspan3261"
           style="font-size:18.00006676px;font-style:italic;font-variant:normal;font-weight:normal;font-stretch:normal;writing-mode:lr-tb;fill:#2a3e92;fill-opacity:1;fill-rule:nonzero;stroke:none;font-family:Arial;-inkscape-font-specification:Arial-ItalicMT">a</tspan>
      </text>
      <text
         transform="matrix(0.89766561,0.44067726,0.44067726,-0.89766561,454.3514,162.2106)"
         id="text3263">
        <tspan
           x="0"
           y="0"
           id="tspan3265"
           style="font-size:18.00002098px;font-style:italic;font-variant:normal;font-weight:normal;font-stretch:normal;writing-mode:lr-tb;fill:#2a3e92;fill-opacity:1;fill-rule:nonzero;stroke:none;font-family:Arial;-inkscape-font-specification:Arial-ItalicMT">i</tspan>
      </text>
      <text
         transform="matrix(0.89766014,0.44068841,0.44068841,-0.89766014,457.9412,163.9729)"
         id="text3267">
        <tspan
           x="0"
           y="0"
           id="tspan3269"
           style="font-size:18.00001907px;font-style:italic;font-variant:normal;font-weight:normal;font-stretch:normal;writing-mode:lr-tb;fill:#2a3e92;fill-opacity:1;fill-rule:nonzero;stroke:none;font-family:Arial;-inkscape-font-specification:Arial-ItalicMT">s</tspan>
      </text>
      <text
         transform="matrix(0.89765139,0.44070624,0.44070624,-0.89765139,466.0201,167.9391)"
         id="text3271">
        <tspan
           x="0"
           y="0"
           id="tspan3273"
           style="font-size:17.99997139px;font-style:italic;font-variant:normal;font-weight:normal;font-stretch:normal;writing-mode:lr-tb;fill:#2a3e92;fill-opacity:1;fill-rule:nonzero;stroke:none;font-family:Arial;-inkscape-font-specification:Arial-ItalicMT">o</tspan>
      </text>
      <text
         transform="matrix(0.89764044,0.44072854,0.44072854,-0.89764044,475.0063,172.3509)"
         id="text3275">
        <tspan
           x="0"
           y="0"
           id="tspan3277"
           style="font-size:17.99996948px;font-style:italic;font-variant:normal;font-weight:normal;font-stretch:normal;writing-mode:lr-tb;fill:#2a3e92;fill-opacity:1;fill-rule:nonzero;stroke:none;font-family:Arial;-inkscape-font-specification:Arial-ItalicMT">n</tspan>
      </text>
    </g>
  </g>
</svg>
